<mxfile host="app.diagrams.net" agent="Mozilla/5.0 (Windows NT 10.0; Win64; x64) AppleWebKit/537.36 (KHTML, like Gecko) Chrome/131.0.0.0 Safari/537.36" version="25.0.3">
  <diagram name="Page-1" id="2YBvvXClWsGukQMizWep">
    <mxGraphModel dx="636" dy="338" grid="1" gridSize="10" guides="1" tooltips="1" connect="1" arrows="1" fold="1" page="1" pageScale="1" pageWidth="850" pageHeight="1100" math="0" shadow="0">
      <root>
        <mxCell id="0" />
        <mxCell id="1" parent="0" />
        <mxCell id="T-DTVKY8SKKuzVCoaYFZ-12" value="" style="rounded=0;whiteSpace=wrap;html=1;fillStyle=cross-hatch;gradientColor=none;gradientDirection=radial;fillColor=none;" parent="1" vertex="1">
          <mxGeometry x="130" y="451" width="675" height="264" as="geometry" />
        </mxCell>
        <mxCell id="T-DTVKY8SKKuzVCoaYFZ-13" value="Utente" style="shape=umlLifeline;perimeter=lifelinePerimeter;whiteSpace=wrap;html=1;container=0;dropTarget=0;collapsible=0;recursiveResize=0;outlineConnect=0;portConstraint=eastwest;newEdgeStyle={&quot;edgeStyle&quot;:&quot;elbowEdgeStyle&quot;,&quot;elbow&quot;:&quot;vertical&quot;,&quot;curved&quot;:0,&quot;rounded&quot;:0};" parent="1" vertex="1">
          <mxGeometry x="130" y="355" width="100" height="390" as="geometry" />
        </mxCell>
        <mxCell id="T-DTVKY8SKKuzVCoaYFZ-14" value="" style="html=1;points=[];perimeter=orthogonalPerimeter;outlineConnect=0;targetShapes=umlLifeline;portConstraint=eastwest;newEdgeStyle={&quot;edgeStyle&quot;:&quot;elbowEdgeStyle&quot;,&quot;elbow&quot;:&quot;vertical&quot;,&quot;curved&quot;:0,&quot;rounded&quot;:0};" parent="T-DTVKY8SKKuzVCoaYFZ-13" vertex="1">
          <mxGeometry x="45" y="70" width="10" height="280" as="geometry" />
        </mxCell>
        <mxCell id="T-DTVKY8SKKuzVCoaYFZ-15" value="Esecuzione Applicazione" style="html=1;verticalAlign=bottom;startArrow=oval;endArrow=block;startSize=8;edgeStyle=elbowEdgeStyle;elbow=vertical;curved=0;rounded=0;" parent="T-DTVKY8SKKuzVCoaYFZ-13" target="T-DTVKY8SKKuzVCoaYFZ-14" edge="1">
          <mxGeometry x="-0.0303" relative="1" as="geometry">
            <mxPoint x="-120" y="70" as="sourcePoint" />
            <Array as="points">
              <mxPoint x="-120" y="70" />
            </Array>
            <mxPoint as="offset" />
          </mxGeometry>
        </mxCell>
        <mxCell id="T-DTVKY8SKKuzVCoaYFZ-16" value="Elenco Telefonico" style="shape=umlLifeline;perimeter=lifelinePerimeter;whiteSpace=wrap;html=1;container=0;dropTarget=0;collapsible=0;recursiveResize=0;outlineConnect=0;portConstraint=eastwest;newEdgeStyle={&quot;edgeStyle&quot;:&quot;elbowEdgeStyle&quot;,&quot;elbow&quot;:&quot;vertical&quot;,&quot;curved&quot;:0,&quot;rounded&quot;:0};" parent="1" vertex="1">
          <mxGeometry x="310" y="355" width="100" height="390" as="geometry" />
        </mxCell>
        <mxCell id="T-DTVKY8SKKuzVCoaYFZ-17" value="" style="html=1;points=[];perimeter=orthogonalPerimeter;outlineConnect=0;targetShapes=umlLifeline;portConstraint=eastwest;newEdgeStyle={&quot;edgeStyle&quot;:&quot;elbowEdgeStyle&quot;,&quot;elbow&quot;:&quot;vertical&quot;,&quot;curved&quot;:0,&quot;rounded&quot;:0};" parent="T-DTVKY8SKKuzVCoaYFZ-16" vertex="1">
          <mxGeometry x="45" y="80" width="10" height="260" as="geometry" />
        </mxCell>
        <mxCell id="T-DTVKY8SKKuzVCoaYFZ-18" value="creaContatto()" style="html=1;verticalAlign=bottom;endArrow=block;edgeStyle=elbowEdgeStyle;elbow=horizontal;curved=0;rounded=0;" parent="1" source="T-DTVKY8SKKuzVCoaYFZ-14" target="T-DTVKY8SKKuzVCoaYFZ-17" edge="1">
          <mxGeometry relative="1" as="geometry">
            <mxPoint x="285" y="445" as="sourcePoint" />
            <Array as="points">
              <mxPoint x="270" y="435" />
            </Array>
          </mxGeometry>
        </mxCell>
        <mxCell id="T-DTVKY8SKKuzVCoaYFZ-19" value="Contatto" style="shape=umlLifeline;perimeter=lifelinePerimeter;whiteSpace=wrap;html=1;container=0;dropTarget=0;collapsible=0;recursiveResize=0;outlineConnect=0;portConstraint=eastwest;newEdgeStyle={&quot;edgeStyle&quot;:&quot;elbowEdgeStyle&quot;,&quot;elbow&quot;:&quot;vertical&quot;,&quot;curved&quot;:0,&quot;rounded&quot;:0};" parent="1" vertex="1">
          <mxGeometry x="515" y="370" width="100" height="410" as="geometry" />
        </mxCell>
        <mxCell id="T-DTVKY8SKKuzVCoaYFZ-20" value="" style="html=1;points=[];perimeter=orthogonalPerimeter;outlineConnect=0;targetShapes=umlLifeline;portConstraint=eastwest;newEdgeStyle={&quot;edgeStyle&quot;:&quot;elbowEdgeStyle&quot;,&quot;elbow&quot;:&quot;vertical&quot;,&quot;curved&quot;:0,&quot;rounded&quot;:0};" parent="T-DTVKY8SKKuzVCoaYFZ-19" vertex="1">
          <mxGeometry x="45" y="70" width="10" height="150" as="geometry" />
        </mxCell>
        <mxCell id="T-DTVKY8SKKuzVCoaYFZ-38" value="" style="html=1;points=[];perimeter=orthogonalPerimeter;outlineConnect=0;targetShapes=umlLifeline;portConstraint=eastwest;newEdgeStyle={&quot;edgeStyle&quot;:&quot;elbowEdgeStyle&quot;,&quot;elbow&quot;:&quot;vertical&quot;,&quot;curved&quot;:0,&quot;rounded&quot;:0};" parent="T-DTVKY8SKKuzVCoaYFZ-19" vertex="1">
          <mxGeometry x="45" y="260" width="10" height="50" as="geometry" />
        </mxCell>
        <mxCell id="T-DTVKY8SKKuzVCoaYFZ-40" value="" style="shape=umlDestroy;whiteSpace=wrap;html=1;strokeWidth=3;targetShapes=umlLifeline;" parent="T-DTVKY8SKKuzVCoaYFZ-19" vertex="1">
          <mxGeometry x="35" y="300" width="30" height="30" as="geometry" />
        </mxCell>
        <mxCell id="T-DTVKY8SKKuzVCoaYFZ-23" value="&lt;font style=&quot;font-size: 9px;&quot;&gt;new&lt;/font&gt;" style="html=1;verticalAlign=bottom;endArrow=block;edgeStyle=elbowEdgeStyle;elbow=horizontal;curved=0;rounded=0;" parent="1" edge="1">
          <mxGeometry x="0.0769" relative="1" as="geometry">
            <mxPoint x="365" y="470.2899999999999" as="sourcePoint" />
            <Array as="points">
              <mxPoint x="455" y="470.29" />
            </Array>
            <mxPoint x="560" y="470.29" as="targetPoint" />
            <mxPoint as="offset" />
          </mxGeometry>
        </mxCell>
        <mxCell id="T-DTVKY8SKKuzVCoaYFZ-24" value="alt" style="rounded=0;whiteSpace=wrap;html=1;fillColor=none;" parent="1" vertex="1">
          <mxGeometry x="130" y="451" width="40" height="20" as="geometry" />
        </mxCell>
        <mxCell id="T-DTVKY8SKKuzVCoaYFZ-25" value="&lt;span style=&quot;font-size: 6px;&quot;&gt;[(nomePresente or cognomePresente) == true]&lt;/span&gt;" style="text;html=1;align=center;verticalAlign=middle;whiteSpace=wrap;rounded=0;" parent="1" vertex="1">
          <mxGeometry x="570" y="448" width="130" height="10" as="geometry" />
        </mxCell>
        <mxCell id="T-DTVKY8SKKuzVCoaYFZ-26" value="" style="endArrow=none;dashed=1;html=1;rounded=0;exitX=0;exitY=0.525;exitDx=0;exitDy=0;exitPerimeter=0;entryX=1.002;entryY=0.607;entryDx=0;entryDy=0;entryPerimeter=0;" parent="1" target="T-DTVKY8SKKuzVCoaYFZ-12" edge="1">
          <mxGeometry width="50" height="50" relative="1" as="geometry">
            <mxPoint x="132.5" y="612.62" as="sourcePoint" />
            <mxPoint x="952.5" y="613.37" as="targetPoint" />
            <Array as="points" />
          </mxGeometry>
        </mxCell>
        <mxCell id="T-DTVKY8SKKuzVCoaYFZ-27" value="return" style="html=1;verticalAlign=bottom;endArrow=open;dashed=1;endSize=8;edgeStyle=elbowEdgeStyle;elbow=vertical;curved=0;rounded=0;" parent="1" edge="1">
          <mxGeometry relative="1" as="geometry">
            <mxPoint x="185" y="595" as="targetPoint" />
            <Array as="points">
              <mxPoint x="325" y="595" />
              <mxPoint x="290" y="595" />
            </Array>
            <mxPoint x="355" y="595.23" as="sourcePoint" />
          </mxGeometry>
        </mxCell>
        <mxCell id="T-DTVKY8SKKuzVCoaYFZ-28" value="&lt;span style=&quot;font-size: 8px;&quot;&gt;GestioneFileEsternoContatti&lt;/span&gt;" style="shape=umlLifeline;perimeter=lifelinePerimeter;whiteSpace=wrap;html=1;container=0;dropTarget=0;collapsible=0;recursiveResize=0;outlineConnect=0;portConstraint=eastwest;newEdgeStyle={&quot;edgeStyle&quot;:&quot;elbowEdgeStyle&quot;,&quot;elbow&quot;:&quot;vertical&quot;,&quot;curved&quot;:0,&quot;rounded&quot;:0};" parent="1" vertex="1">
          <mxGeometry x="730" y="355" width="100" height="390" as="geometry" />
        </mxCell>
        <mxCell id="T-DTVKY8SKKuzVCoaYFZ-29" value="" style="html=1;points=[];perimeter=orthogonalPerimeter;outlineConnect=0;targetShapes=umlLifeline;portConstraint=eastwest;newEdgeStyle={&quot;edgeStyle&quot;:&quot;elbowEdgeStyle&quot;,&quot;elbow&quot;:&quot;vertical&quot;,&quot;curved&quot;:0,&quot;rounded&quot;:0};" parent="T-DTVKY8SKKuzVCoaYFZ-28" vertex="1">
          <mxGeometry x="45" y="110" width="10" height="120" as="geometry" />
        </mxCell>
        <mxCell id="T-DTVKY8SKKuzVCoaYFZ-30" value="" style="html=1;verticalAlign=bottom;endArrow=block;edgeStyle=elbowEdgeStyle;elbow=vertical;curved=0;rounded=0;" parent="1" edge="1">
          <mxGeometry x="0.0146" relative="1" as="geometry">
            <mxPoint x="570" y="490" as="sourcePoint" />
            <Array as="points">
              <mxPoint x="660" y="490" />
            </Array>
            <mxPoint x="775" y="490" as="targetPoint" />
            <mxPoint as="offset" />
          </mxGeometry>
        </mxCell>
        <mxCell id="T-DTVKY8SKKuzVCoaYFZ-37" value="salvaElenco(String filename)" style="edgeLabel;html=1;align=center;verticalAlign=middle;resizable=0;points=[];" parent="T-DTVKY8SKKuzVCoaYFZ-30" vertex="1" connectable="0">
          <mxGeometry x="0.0216" y="1" relative="1" as="geometry">
            <mxPoint y="-9" as="offset" />
          </mxGeometry>
        </mxCell>
        <mxCell id="T-DTVKY8SKKuzVCoaYFZ-32" value="addToElencoTelefonico()&lt;div&gt;sort()&lt;/div&gt;" style="html=1;verticalAlign=bottom;endArrow=open;dashed=1;endSize=8;edgeStyle=elbowEdgeStyle;elbow=horizontal;curved=0;rounded=0;" parent="1" source="T-DTVKY8SKKuzVCoaYFZ-20" target="T-DTVKY8SKKuzVCoaYFZ-17" edge="1">
          <mxGeometry relative="1" as="geometry">
            <mxPoint x="390" y="529.62" as="targetPoint" />
            <Array as="points">
              <mxPoint x="490" y="585" />
            </Array>
            <mxPoint x="525" y="530" as="sourcePoint" />
          </mxGeometry>
        </mxCell>
        <mxCell id="T-DTVKY8SKKuzVCoaYFZ-33" value="return" style="html=1;verticalAlign=bottom;endArrow=open;dashed=1;endSize=8;edgeStyle=elbowEdgeStyle;elbow=vertical;curved=0;rounded=0;" parent="1" edge="1">
          <mxGeometry relative="1" as="geometry">
            <mxPoint x="185" y="685" as="targetPoint" />
            <Array as="points">
              <mxPoint x="325" y="685" />
              <mxPoint x="290" y="685" />
            </Array>
            <mxPoint x="355" y="685.23" as="sourcePoint" />
          </mxGeometry>
        </mxCell>
        <mxCell id="T-DTVKY8SKKuzVCoaYFZ-34" value="&lt;font style=&quot;font-size: 7px;&quot;&gt;[else]&lt;/font&gt;" style="text;html=1;align=center;verticalAlign=middle;whiteSpace=wrap;rounded=0;rotation=0;" parent="1" vertex="1">
          <mxGeometry x="571" y="618" width="19" as="geometry" />
        </mxCell>
        <mxCell id="T-DTVKY8SKKuzVCoaYFZ-35" value="Error Message&amp;nbsp;" style="html=1;verticalAlign=bottom;endArrow=open;dashed=1;endSize=8;edgeStyle=elbowEdgeStyle;elbow=horizontal;curved=0;rounded=0;" parent="1" edge="1">
          <mxGeometry relative="1" as="geometry">
            <mxPoint x="365" y="675" as="targetPoint" />
            <Array as="points">
              <mxPoint x="490" y="675" />
            </Array>
            <mxPoint x="560" y="675" as="sourcePoint" />
          </mxGeometry>
        </mxCell>
        <mxCell id="uKGPp5hmYyzaE7Rl1PzV-1" value="return" style="html=1;verticalAlign=bottom;endArrow=open;dashed=1;endSize=8;edgeStyle=elbowEdgeStyle;elbow=horizontal;curved=0;rounded=0;" parent="1" source="T-DTVKY8SKKuzVCoaYFZ-29" edge="1">
          <mxGeometry relative="1" as="geometry">
            <mxPoint x="570" y="570" as="targetPoint" />
            <Array as="points">
              <mxPoint x="695" y="570" />
            </Array>
            <mxPoint x="765" y="570" as="sourcePoint" />
          </mxGeometry>
        </mxCell>
      </root>
    </mxGraphModel>
  </diagram>
</mxfile>
